<svg width="14" height="13" viewBox="0 0 14 13" fill="none" xmlns="http://www.w3.org/2000/svg">
<path d="M13.7188 7.21875C13.9062 7.01042 14 6.77083 14 6.5C14 6.22917 13.9062 5.98958 13.7188 5.78125L8.71875 0.78125C8.51042 0.59375 8.27083 0.5 8 0.5C7.72917 0.5 7.48958 0.59375 7.28125 0.78125C7.09375 0.989583 7 1.22917 7 1.5C7 1.77083 7.09375 2.01042 7.28125 2.21875L10.5938 5.5H1C0.708333 5.5 0.46875 5.59375 0.28125 5.78125C0.09375 5.96875 0 6.20833 0 6.5C0 6.79167 0.09375 7.03125 0.28125 7.21875C0.46875 7.40625 0.708333 7.5 1 7.5H10.5938L7.28125 10.7812C7.09375 10.9896 7 11.2292 7 11.5C7 11.7708 7.09375 12.0104 7.28125 12.2188C7.48958 12.4062 7.72917 12.5 8 12.5C8.27083 12.5 8.51042 12.4062 8.71875 12.2188L13.7188 7.21875Z" fill="#F7F7F7"/>
</svg>
