<svg width="42" height="42" viewBox="0 0 42 42" fill="none" xmlns="http://www.w3.org/2000/svg">
<path fill-rule="evenodd" clip-rule="evenodd" d="M29.0043 29.3368H8.99598C6.23341 29.3368 3.9939 27.0973 3.9939 24.3347V10.9958C3.9939 8.23326 6.23341 5.99375 8.99598 5.99375H29.0043C31.7669 5.99375 34.0064 8.23326 34.0064 10.9958V24.3347C34.0064 27.0973 31.7669 29.3368 29.0043 29.3368Z" stroke="#030E15" stroke-width="2" stroke-linecap="round" stroke-linejoin="round"/>
<path d="M22.3348 29.3368L23.1685 36.0063" stroke="#030E15" stroke-width="2" stroke-linecap="round" stroke-linejoin="round"/>
<path d="M15.6653 29.3368L14.8316 36.0063" stroke="#030E15" stroke-width="2" stroke-linecap="round" stroke-linejoin="round"/>
<path d="M10.9966 36.0063H27.0032" stroke="#030E15" stroke-width="2" stroke-linecap="round" stroke-linejoin="round"/>
<path d="M26.9968 17.6335L24.4897 20.1405" stroke="#030E15" stroke-width="2" stroke-linecap="round" stroke-linejoin="round"/>
<path d="M24.5186 15.1557L26.9969 17.6335" stroke="#030E15" stroke-width="2" stroke-linecap="round" stroke-linejoin="round"/>
<path d="M13.5102 20.1585L11.0032 17.652" stroke="#030E15" stroke-width="2" stroke-linecap="round" stroke-linejoin="round"/>
<path d="M13.4817 15.1736L11.0032 17.652" stroke="#030E15" stroke-width="2" stroke-linecap="round" stroke-linejoin="round"/>
<path d="M20.2629 13.4969L17.7559 21.8337" stroke="#030E15" stroke-width="2" stroke-linecap="round" stroke-linejoin="round"/>
</svg>
